Coordinates
version=1
nRows=4
nColumns=107
inDegrees=yes

Units are S.I. units (second, meters, Newtons, ...)
If the header above contains a line with 'inDegrees', this indicates whether rotational values are in degrees (yes) or radians (no).

endheader
time	sternoclavicular_r2	sternoclavicular_r3	unrotscap_r3	unrotscap_r2	acromioclavicular_r2	acromioclavicular_r3	acromioclavicular_r1	unrothum_r1	unrothum_r3	unrothum_r2	elv_angle	shoulder_elv	shoulder1_r2	shoulder_rot	elbow_flexion	pro_sup	deviation	flexion	proximal_distal_r1	proximal_distal_r3	cmc_flexion	cmc_abduction	mp_flexion	ip_flexion	mcp2_flexion	mcp2_abduction	pm2_flexion	md2_flexion	mcp3_flexion	mcp3_abduction	pm3_flexion	md3_flexion	mcp4_flexion	mcp4_abduction	pm4_flexion	md4_flexion	mcp5_flexion	mcp5_abduction	pm5_flexion	md5_flexion	bicpt_tx	bicpt_ty	bicpt_tz	bicpt2_tx	bicpt2_ty	bicpt2_tz	ptpt_tx	ptpt_ty	ptpt_tz	FCUpt_tx	FCUpt_ty	FCUpt_tz	EDCpt_tx	EDCpt_ty	EDCpt_tz	APLpt_tx	APLpt_ty	APLpt_tz	FPLpt_tx	FPLpt_ty	FPLpt_tz	FPLpt2_tx	FPLpt2_ty	FPLpt2_tz	PEC1pt2_tx	PEC1pt2_ty	PEC1pt2_tz	PEC1pt3_tx	PEC1pt3_ty	PEC1pt3_tz	PEC2pt2_tx	PEC2pt2_ty	PEC2pt2_tz	PEC2pt3_tx	PEC2pt3_ty	PEC2pt3_tz	PEC3pt2_tx	PEC3pt2_ty	PEC3pt2_tz	PEC3pt3_tx	PEC3pt3_ty	PEC3pt3_tz	DELT2pt2a_tx	DELT2pt2a_ty	DELT2pt2a_tz	DELT2pt2_tx	DELT2pt2_ty	DELT2pt2_tz	LAT1pt2_tx	LAT1pt2_ty	LAT1pt2_tz	LAT1pt3_tx	LAT1pt3_ty	LAT1pt3_tz	LAT2pt2_tx	LAT2pt2_ty	LAT2pt2_tz	LAT2pt3_tx	LAT2pt3_ty	LAT2pt3_tz	LAT3pt2_tx	LAT3pt2_ty	LAT3pt2_tz	LAT3pt3_tx	LAT3pt3_ty	LAT3pt3_tz
      0.56666667	     -0.32024205	      0.13563942	     -0.13563942	      0.32024205	     -0.06484250	      0.52403428	      0.23554980	     -0.23554980	     -0.52403428	      0.06484250	     99.30521937	     75.82015205	     -1.73320304	    -24.67619762	     28.85578607	     26.02319201	      0.01496021	     -1.01320133	      0.02011992	     -0.50660066	      2.86589077	      7.96661422	    -38.74322380	    -56.40290547	     11.90119191	     -4.93864014	     25.71585288	    -20.50776172	     78.76270995	      4.42105953	     83.73584453	     38.05585882	     68.87301062	    -10.30073228	     85.92858542	     20.73789221	     18.32215347	     -3.21033632	    -14.96243527	      4.90512154	      0.00085446	     -0.03090731	     -0.00483272	      0.01632484	     -0.01803882	     -0.00882513	      0.00562718	     -0.06614333	     -0.00214631	      0.00640322	     -0.18375808	     -0.00021364	     -0.00312278	      0.00084183	      0.00019382	      0.00017694	      0.00007078	      0.00035388	      0.00022648	      0.00067944	      0.00038219	      0.00004157	     -0.00006708	     -0.00008050	      0.00248522	      0.00871932	      0.00606562	     -0.00812961	      0.01962901	     -0.01861808	      0.00248522	      0.00871932	      0.00606562	      0.00054759	      0.01819685	     -0.00956177	      0.00393479	      0.00484871	      0.01593540	      0.00000000	      0.00768761	      0.00000000	     -0.00711868	     -0.03289755	     -0.00633826	      0.01632843	     -0.00057972	     -0.00508800	     -0.00088457	      0.01482706	     -0.00606562	      0.00244310	      0.02139815	     -0.01769138	     -0.00593925	      0.01284731	     -0.00543378	     -0.01238397	      0.02712679	     -0.03037021	     -0.02325153	      0.01436372	     -0.00728717	     -0.01541678	      0.03133902	     -0.03795223
      0.60000000	     -0.32012741	      0.13559086	     -0.13559086	      0.32012741	     -0.06481929	      0.52384670	      0.23546549	     -0.23546549	     -0.52384670	      0.06481929	     99.32636003	     75.79301090	     -1.73357202	    -24.85962882	     28.90224131	     26.19298548	      0.01398809	     -1.00670594	      0.01882366	     -0.50335297	      2.72372798	      7.83998823	    -38.66386637	    -56.29768385	     11.81322206	     -4.87617190	     25.98468410	    -20.44600878	     78.68363457	      4.32613670	     83.69039998	     38.49656442	     68.72696924	    -10.33740406	     85.78646013	     20.97475706	     18.33356555	     -3.64336838	    -14.92816547	      4.90772848	      0.00085600	     -0.03091264	     -0.00483358	      0.01633055	     -0.01805144	     -0.00881031	      0.00561463	     -0.06615144	     -0.00215999	      0.00641958	     -0.18375522	     -0.00021662	     -0.00314315	      0.00084801	      0.00019388	      0.00018128	      0.00007251	      0.00036256	      0.00023204	      0.00069612	      0.00039157	      0.00004110	     -0.00006397	     -0.00007677	      0.00248433	      0.00871620	      0.00606345	     -0.00812670	      0.01962198	     -0.01861141	      0.00248433	      0.00871620	      0.00606345	      0.00054739	      0.01819034	     -0.00955835	      0.00393376	      0.00484697	      0.01593287	      0.00000000	      0.00768206	      0.00000000	     -0.00711613	     -0.03288577	     -0.00633366	      0.01642258	     -0.00058567	     -0.00516474	     -0.00088425	      0.01482176	     -0.00606345	      0.00244222	      0.02139049	     -0.01768505	     -0.00593712	      0.01284272	     -0.00543184	     -0.01237954	      0.02711708	     -0.03035934	     -0.02324321	      0.01435858	     -0.00728456	     -0.01541126	      0.03132780	     -0.03793864
      0.63333333	     -0.31957366	      0.13535632	     -0.13535632	      0.31957366	     -0.06470717	      0.52294055	      0.23505818	     -0.23505818	     -0.52294055	      0.06470717	     99.45583811	     75.66190482	     -1.73583184	    -25.59079350	     28.96276116	     26.79308568	      0.01065217	     -0.99970841	      0.01436366	     -0.49985420	      2.37077336	      7.74579453	    -38.58545885	    -56.01270942	     11.49385356	     -4.78040829	     26.42711787	    -20.48318006	     78.40873137	      4.23011412	     83.52763288	     39.12376644	     68.67268649	    -10.37290797	     85.67334045	     21.61931817	     18.41055260	     -3.86157885	    -14.86366285	      4.91913301	      0.00085800	     -0.03091958	     -0.00483470	      0.01635023	     -0.01806788	     -0.00875762	      0.00557029	     -0.06618011	     -0.00220833	      0.00647750	     -0.18374504	     -0.00022699	     -0.00321516	      0.00086992	      0.00019397	      0.00018594	      0.00007438	      0.00037189	      0.00023801	      0.00071402	      0.00040164	      0.00003955	     -0.00005617	     -0.00006740	      0.00248003	      0.00870113	      0.00605296	     -0.00811264	      0.01958804	     -0.01857922	      0.00248003	      0.00870113	      0.00605296	      0.00054645	      0.01815887	     -0.00954181	      0.00392877	      0.00483859	      0.01592060	      0.00000000	      0.00765533	      0.00000000	     -0.00710382	     -0.03282889	     -0.00631146	      0.01679341	     -0.00060954	     -0.00547526	     -0.00088272	      0.01479612	     -0.00605296	      0.00243800	      0.02135349	     -0.01765446	     -0.00592685	      0.01282050	     -0.00542244	     -0.01235812	      0.02707017	     -0.03030682	     -0.02320300	      0.01433374	     -0.00727196	     -0.01538460	      0.03127361	     -0.03787302
      0.66666667	     -0.31952757	      0.13533680	     -0.13533680	      0.31952757	     -0.06469783	      0.52286513	      0.23502428	     -0.23502428	     -0.52286513	      0.06469783	     99.45896951	     75.65099258	     -1.73588649	    -25.58712683	     28.96342307	     26.79337392	      0.01063972	     -0.99970209	      0.01434694	     -0.49985105	      2.37179597	      7.74591719	    -38.58531290	    -56.01257608	     11.49576353	     -4.78003597	     26.42730743	    -20.48300657	     78.41059948	      4.23031417	     83.52804927	     39.12369440	     68.67252489	    -10.37279859	     85.67331047	     21.61927781	     18.40971477	     -3.86205243	    -14.86392192	      4.91905255	      0.00085802	     -0.03091965	     -0.00483471	      0.01635023	     -0.01806806	     -0.00875758	      0.00557027	     -0.06618012	     -0.00220835	      0.00647753	     -0.18374503	     -0.00022699	     -0.00321520	      0.00086993	      0.00019397	      0.00018588	      0.00007435	      0.00037176	      0.00023793	      0.00071379	      0.00040151	      0.00003942	     -0.00005617	     -0.00006740	      0.00247967	      0.00869987	      0.00605208	     -0.00811147	      0.01958522	     -0.01857654	      0.00247967	      0.00869987	      0.00605208	      0.00054637	      0.01815625	     -0.00954044	      0.00392836	      0.00483789	      0.01591957	      0.00000000	      0.00765311	      0.00000000	     -0.00710279	     -0.03282415	     -0.00630962	      0.01679156	     -0.00060942	     -0.00547370	     -0.00088260	      0.01479398	     -0.00605208	      0.00243765	      0.02135041	     -0.01765191	     -0.00592600	      0.01281865	     -0.00542166	     -0.01235634	      0.02706627	     -0.03030245	     -0.02319966	      0.01433167	     -0.00727091	     -0.01538238	      0.03126910	     -0.03786756
